<svg width="61" height="49" viewBox="0 0 61 49" fill="none" xmlns="http://www.w3.org/2000/svg">
<path d="M54.833 39.7082C54.833 40.5149 54.5125 41.2885 53.9421 41.859C53.3717 42.4294 52.598 42.7498 51.7913 42.7498C50.9846 42.7498 50.211 42.4294 49.6406 41.859C49.0701 41.2885 48.7497 40.5149 48.7497 39.7082V3.20817C48.7497 2.40147 48.4292 1.62781 47.8588 1.05739C47.2884 0.486965 46.5147 0.166504 45.708 0.166504H3.12467C2.31797 0.166504 1.54431 0.486965 0.973891 1.05739C0.403468 1.62781 0.0830078 2.40147 0.0830078 3.20817V42.7498C0.0830078 44.3632 0.723928 45.9106 1.86477 47.0514C3.00562 48.1922 4.55294 48.8332 6.16634 48.8332H51.7913C56.8223 48.8332 60.9163 44.7391 60.9163 39.7082V9.2915H54.833V39.7082ZM30.4997 9.2915H39.6247V15.3748H30.4997V9.2915ZM30.4997 21.4582H39.6247V27.5415H30.4997V21.4582ZM9.20801 9.2915H24.4163V27.5415H9.20801V9.2915ZM9.20801 39.7082V33.6248H39.6247V39.7082H9.20801Z" fill="#F0F0F0"/>
</svg>
