<svg width="25" height="24" viewBox="0 0 25 24" fill="none" xmlns="http://www.w3.org/2000/svg">
<path d="M4.29905 22.2761C4.18235 22.9413 4.8387 23.462 5.41836 23.1641L12.0022 19.7802L18.586 23.1641C19.1657 23.462 19.822 22.9413 19.7053 22.2761L18.4608 15.1819L23.7443 10.1469C24.238 9.67639 23.9824 8.81605 23.3209 8.72208L15.9732 7.67827L12.697 1.18846C12.4019 0.603848 11.6025 0.603848 11.3073 1.18846L8.03117 7.67827L0.683455 8.72208C0.0219713 8.81605 -0.233629 9.67639 0.260142 10.1469L5.54364 15.1819L4.29905 22.2761ZM11.656 18.1239L6.12733 20.9655L7.16871 15.0296C7.2178 14.7497 7.12549 14.4632 6.92459 14.2718L2.56433 10.1166L8.64279 9.2531C8.89407 9.21741 9.11347 9.05692 9.232 8.82211L12.0022 3.33461L14.7724 8.82211C14.8909 9.05692 15.1103 9.21741 15.3616 9.2531L21.4401 10.1166L17.0798 14.2718C16.8789 14.4632 16.7866 14.7497 16.8357 15.0296L17.8771 20.9655L12.3484 18.1239C12.13 18.0117 11.8743 18.0117 11.656 18.1239Z" fill="black"/>
</svg>
